<svg width="30" height="30" viewBox="0 0 30 30" xmlns="http://www.w3.org/2000/svg">
    <g clip-path="url(#clip0)">
        <path d="M30 15.0009C30 6.71595 23.2842 0.000686646 15.0002 0.000686646C6.71581 0.000686646 0 6.71589 0 15.0009C0 23.2846 6.71581 30.0003 15.0002 30.0003C23.2842 30.0003 30 23.2846 30 15.0009Z" fill="#FF6D3B"/>
        <path d="M23.2589 9.97475C22.9058 9.06422 22.1863 9.20794 21.4066 9.36243C20.941 9.45947 18.8699 10.0657 15.5931 13.521C14.2332 14.955 13.3362 16.0983 12.7455 16.9702C12.3847 16.5272 11.9714 16.0533 11.5373 15.6191C10.2024 14.2845 8.71369 13.368 8.65111 13.3295C8.02639 12.9476 7.21084 13.1441 6.82786 13.7683C6.44536 14.3925 6.64127 15.2094 7.26502 15.5928C7.27778 15.6008 8.55618 16.3912 9.66057 17.4959C10.7868 18.6223 11.8073 20.1456 11.8173 20.1603C12.0658 20.5339 12.4829 20.7518 12.9218 20.7518C12.9971 20.7518 13.0732 20.7455 13.1489 20.7324C13.6668 20.6424 14.0829 20.2551 14.2097 19.7449C14.2129 19.7326 14.7392 18.2782 17.519 15.3475C19.7579 12.9861 21.251 12.2356 21.7684 12.0275C21.7733 12.0266 21.7769 12.0263 21.7836 12.0249C21.7811 12.0255 21.8004 12.0166 21.8316 12.0026C21.9204 11.9692 21.968 11.9565 21.9707 11.9558C21.9452 11.9622 21.9319 11.9637 21.9319 11.9637L21.9311 11.9591C22.1705 11.8547 22.6186 11.6619 22.6284 11.6578C23.3032 11.3806 23.5226 10.6547 23.2589 9.97475Z" fill="white"/>
    </g>
    <defs>
        <clipPath id="clip0">
            <rect width="30" height="30" fill="white"/>
        </clipPath>
    </defs>
</svg>
