<svg width="512" height="512" viewBox="0 0 512 512" fill="none" xmlns="http://www.w3.org/2000/svg">
    <path d="M256 512C397.385 512 512 397.385 512 256C512 114.615 397.385 0 256 0C114.615 0 0 114.615 0 256C0 397.385 114.615 512 256 512Z" fill="#FF6D3B"/>
    <path d="M167.508 357.939H102.859V368.603H167.508V357.939Z" fill="#FFB733"/>
    <path d="M167.508 357.164H102.859V366.715H167.508V357.164Z" fill="#FFD55C"/>
    <path d="M167.508 346.499H102.859V357.163H167.508V346.499Z" fill="#FFB733"/>
    <path d="M167.508 345.723H102.859V355.28H167.508V345.723Z" fill="#FFD55C"/>
    <path d="M409.162 357.939H344.516V368.603H409.162V357.939Z" fill="#FFB733"/>
    <path d="M409.162 357.164H344.516V366.715H409.162V357.164Z" fill="#FFD55C"/>
    <path d="M409.162 346.499H344.516V357.163H409.162V346.499Z" fill="#FFB733"/>
    <path d="M409.162 345.723H344.516V355.28H409.162V345.723Z" fill="#FFD55C"/>
    <path d="M409.162 335.059H344.516V345.723H409.162V335.059Z" fill="#FFB733"/>
    <path d="M409.162 334.283H344.516V343.838H409.162V334.283Z" fill="#FFD55C"/>
    <path d="M409.162 323.618H344.516V334.282H409.162V323.618Z" fill="#FFB733"/>
    <path d="M409.162 322.842H344.516V332.4H409.162V322.842Z" fill="#FFD55C"/>
    <path d="M409.162 312.178H344.516V322.842H409.162V312.178Z" fill="#FFB733"/>
    <path d="M409.162 311.438H344.516V320.993H409.162V311.438Z" fill="#FFD55C"/>
    <path d="M409.162 300.737H344.516V311.401H409.162V300.737Z" fill="#FFB733"/>
    <path d="M409.162 299.995H344.516V309.553H409.162V299.995Z" fill="#FFD55C"/>
    <path d="M409.162 289.331H344.516V299.995H409.162V289.331Z" fill="#FFB733"/>
    <path d="M409.162 288.556H344.516V298.111H409.162V288.556Z" fill="#FFD55C"/>
    <path d="M409.162 277.892H344.516V288.555H409.162V277.892Z" fill="#FFB733"/>
    <path d="M409.162 277.116H344.516V286.674H409.162V277.116Z" fill="#FFD55C"/>
    <path d="M409.162 266.452H344.516V277.116H409.162V266.452Z" fill="#FFB733"/>
    <path d="M409.162 265.674H344.516V275.229H409.162V265.674Z" fill="#FFD55C"/>
    <path d="M409.162 255.01H344.516V265.674H409.162V255.01Z" fill="#FFB733"/>
    <path d="M409.162 254.234H344.516V263.789H409.162V254.234Z" fill="#FFD55C"/>
    <path d="M409.162 243.57H344.516V254.234H409.162V243.57Z" fill="#FFB733"/>
    <path d="M409.162 242.828H344.516V252.379H409.162V242.828Z" fill="#FFD55C"/>
    <path d="M409.162 232.13H344.516V242.794H409.162V232.13Z" fill="#FFB733"/>
    <path d="M409.162 231.389H344.516V240.951H409.162V231.389Z" fill="#FFD55C"/>
    <path d="M409.162 220.689H344.516V231.353H409.162V220.689Z" fill="#FFB733"/>
    <path d="M409.162 219.948H344.516V229.499H409.162V219.948Z" fill="#FFD55C"/>
    <path d="M409.162 209.284H344.516V219.948H409.162V209.284Z" fill="#FFB733"/>
    <path d="M409.162 208.507H344.516V218.065H409.162V208.507Z" fill="#FFD55C"/>
    <path d="M248.06 357.939H183.406V368.603H248.06V357.939Z" fill="#FFB733"/>
    <path d="M248.06 357.164H183.406V366.715H248.06V357.164Z" fill="#FFD55C"/>
    <path d="M248.06 346.499H183.406V357.163H248.06V346.499Z" fill="#FFB733"/>
    <path d="M248.06 345.723H183.406V355.28H248.06V345.723Z" fill="#FFD55C"/>
    <path d="M248.06 335.059H183.406V345.723H248.06V335.059Z" fill="#FFB733"/>
    <path d="M248.06 334.283H183.406V343.845H248.06V334.283Z" fill="#FFD55C"/>
    <path d="M248.06 323.618H183.406V334.282H248.06V323.618Z" fill="#FFB733"/>
    <path d="M248.06 322.876H183.406V332.434H248.06V322.876Z" fill="#FFD55C"/>
    <path d="M248.06 312.178H183.406V322.842H248.06V312.178Z" fill="#FFB733"/>
    <path d="M248.06 311.438H183.406V320.995H248.06V311.438Z" fill="#FFD55C"/>
    <path d="M248.06 300.773H183.406V311.437H248.06V300.773Z" fill="#FFB733"/>
    <path d="M248.06 299.995H183.406V309.553H248.06V299.995Z" fill="#FFD55C"/>
    <path d="M328.631 357.939H263.984V368.603H328.631V357.939Z" fill="#FFB733"/>
    <path d="M328.631 357.164H263.984V366.715H328.631V357.164Z" fill="#FFD55C"/>
    <path d="M328.631 346.499H263.984V357.163H328.631V346.499Z" fill="#FFB733"/>
    <path d="M328.631 345.723H263.984V355.28H328.631V345.723Z" fill="#FFD55C"/>
    <path d="M328.631 335.059H263.984V345.723H328.631V335.059Z" fill="#FFB733"/>
    <path d="M328.631 334.283H263.984V343.845H328.631V334.283Z" fill="#FFD55C"/>
    <path d="M328.631 323.618H263.984V334.282H328.631V323.618Z" fill="#FFB733"/>
    <path d="M328.631 322.876H263.984V332.434H328.631V322.876Z" fill="#FFD55C"/>
    <path d="M328.631 312.178H263.984V322.842H328.631V312.178Z" fill="#FFB733"/>
    <path d="M328.631 311.438H263.984V320.995H328.631V311.438Z" fill="#FFD55C"/>
    <path d="M328.631 300.773H263.984V311.437H328.631V300.773Z" fill="#FFB733"/>
    <path d="M328.631 299.995H263.984V309.553H328.631V299.995Z" fill="#FFD55C"/>
    <path d="M328.631 289.331H263.984V299.995H328.631V289.331Z" fill="#FFB733"/>
    <path d="M328.631 288.556H263.984V298.113H328.631V288.556Z" fill="#FFD55C"/>
    <path d="M328.631 277.892H263.984V288.555H328.631V277.892Z" fill="#FFB733"/>
    <path d="M328.631 277.116H263.984V286.671H328.631V277.116Z" fill="#FFD55C"/>
    <path d="M328.631 266.452H263.984V277.116H328.631V266.452Z" fill="#FFB733"/>
    <path d="M328.631 265.71H263.984V275.261H328.631V265.71Z" fill="#FFD55C"/>
    <path d="M328.631 255.01H263.984V265.674H328.631V255.01Z" fill="#FFB733"/>
    <path d="M328.631 254.269H263.984V263.824H328.631V254.269Z" fill="#FFD55C"/>
    <path d="M102.834 309.487C99.2221 309.487 96.1179 306.91 95.4537 303.351C94.702 299.275 97.4032 295.349 101.467 294.593C165.237 282.75 234.322 251.628 296.006 206.946C335.316 178.476 369.695 146.231 398.184 111.093C399.621 109.324 401.75 108.314 404.024 108.314C405.736 108.314 407.417 108.911 408.752 109.996C410.305 111.257 411.279 113.05 411.484 115.048C411.697 117.043 411.114 119.003 409.849 120.559C380.527 156.714 345.188 189.873 304.815 219.114C241.362 265.077 170.12 297.128 104.21 309.37C103.752 309.449 103.29 309.487 102.834 309.487Z" fill="white"/>
    <path d="M409.135 172.406C405.282 172.406 402.076 169.511 401.675 165.676L397.328 124.077L355.733 128.416C355.472 128.448 355.206 128.459 354.945 128.459C351.089 128.459 347.883 125.567 347.48 121.733C347.268 119.735 347.85 117.778 349.116 116.217C350.379 114.66 352.177 113.686 354.175 113.48L410.71 107.573L416.618 164.116C417.045 168.238 414.044 171.937 409.926 172.369C409.662 172.392 409.389 172.406 409.135 172.406Z" fill="white"/>
</svg>
