<svg width="24" height="24" viewBox="0 0 24 24" xmlns="http://www.w3.org/2000/svg">
    <path fill-rule="evenodd" clip-rule="evenodd"
          d="M12 0C5.37225 0 0 5.373 0 12C0 18.6278 5.37225 24 12 24C18.6278 24 24 18.6278 24 12C24 5.373 18.6278 0 12 0ZM13.2478 16.9816C12.8998 17.3214 12.4798 17.4916 11.9878 17.4916C11.4755 17.4916 11.0548 17.3274 10.724 16.9966C10.394 16.6651 10.2283 16.2444 10.2283 15.7329C10.2283 15.2356 10.3993 14.8141 10.7428 14.4691C11.0855 14.1241 11.5003 13.9516 11.987 13.9516C12.4738 13.9516 12.8923 14.1279 13.2433 14.4804C13.5935 14.8329 13.769 15.2536 13.769 15.7404C13.769 16.2279 13.595 16.6411 13.2478 16.9816ZM13.4196 12.5903C13.4833 12.4808 13.6656 12.3518 13.9633 12.2025C14.8776 11.7458 15.3351 10.953 15.3366 9.82428C15.3366 8.91003 15.0171 8.14353 14.3781 7.52478C13.7391 6.90603 12.9538 6.59628 12.0193 6.59628C11.4921 6.59628 10.9828 6.72153 10.4908 6.96978C9.9988 7.21803 9.59905 7.55328 9.2908 7.97553C8.87305 8.54703 8.66455 9.28503 8.66455 10.1895H11.2356C11.2356 9.51378 11.4801 9.17478 11.9668 9.17478C12.1453 9.17478 12.2976 9.23853 12.4221 9.36153C12.5451 9.48678 12.6081 9.63753 12.6081 9.81678C12.6081 10.125 12.4168 10.3635 12.0343 10.5323L11.5273 10.7558C11.1591 10.92 10.9056 11.1495 10.7668 11.445C10.6266 11.7413 10.5576 12.1995 10.5576 12.822V13.2915H13.3228C13.3228 12.933 13.3543 12.699 13.4196 12.5903Z"
          fill="#00A8E4"/>
</svg>
